<?xml version="1.0" encoding="UTF-8"?>
<svg width="242px" height="62px" viewBox="0 0 242 62" version="1.1" xmlns="http://www.w3.org/2000/svg" xmlns:xlink="http://www.w3.org/1999/xlink">
    <title>Logo</title>
    <g id="Logo" stroke="none" stroke-width="1" fill="none" fill-rule="evenodd">
        <g id="tycoon" transform="translate(0.000000, 2.000000)" fill-rule="nonzero">
            <path d="M51.5,31.0001958 C51.5,33.209078 49.709078,35 47.4998042,35 C45.290922,35 43.5,33.209078 43.5,31.0001958 C43.5,28.790922 45.290922,27 47.4998042,27 C49.709078,27 51.5,28.790922 51.5,31.0001958 L51.5,31.0001958 Z" id="Path" fill="#FFFFFF"></path>
            <polygon id="Path" fill="#EBEBEB" points="30.0460161 50 33.5 54 30.0460161 58 20.9539839 58 17.5 54 20.9539839 50"></polygon>
            <path d="M30.0460161,49 L20.9539839,49 L17.5,53.2778169 L18.6383008,54.6877198 C19.1238979,54.8923899 19.6629512,55 20.2379414,55 C21.2001516,55 22.2553484,54.6944718 23.3765792,54.0910114 C23.9569599,54.3332395 24.5925936,54.4619496 25.2502386,54.4619496 L25.7493122,54.4619496 C26.4074064,54.4619496 27.0430401,54.3332395 27.6234208,54.0910114 C28.7442023,54.6944718 29.7993992,55 30.7620586,55 C31.3365995,55 31.8756528,54.8923899 32.3616992,54.6877198 L33.5,53.2778169 L30.0460161,49 Z" id="Path" fill="#D5D4DA"></path>
            <path d="M21.5,50 L21.5,58 L14.5,58 C14.5,52.6153694 19.1033945,50 19.1033945,50 L21.5,50 Z" id="Path" fill="#4B5562"></path>
            <path d="M38.5,58 L31.5,58 L31.5,50 L33.8966055,50 C33.8966055,50 38.5,52.6153694 38.5,58 L38.5,58 Z" id="Path" fill="#4B5562"></path>
            <path d="M8.5,31.0001958 C8.5,33.209078 6.70907801,35 4.50019585,35 C2.29092199,35 0.5,33.209078 0.5,31.0001958 C0.5,28.790922 2.29092199,27 4.50019585,27 C6.70907801,27 8.5,28.790922 8.5,31.0001958 L8.5,31.0001958 Z" id="Path" fill="#FFFFFF"></path>
            <path d="M45.5,30.5002248 C45.5,41.821855 36.321855,51 25.0002248,51 C13.6785945,51 4.5,41.821855 4.5,30.5002248 C4.5,19.178145 13.6785945,10 25.0002248,10 C36.321855,10 45.5,19.178145 45.5,30.5002248 Z" id="Path"></path>
            <path d="M6.5,26 L47.5,26 C46.7403285,20.3814148 44.0351344,15.4421659 40.1427265,12 L13.8577279,12 C9.9653199,15.4416768 7.26012586,20.3814148 6.5,26 Z" id="Path" fill="#FFFFFF"></path>
            <polygon id="Path" fill="#EBEBEB" points="43.5 10.1611002 42.7846848 17.7416502 25 21 7.21576574 17.7416502 6.5 10.1611002 25 5"></polygon>
            <polygon id="Path" fill="#D5D4DA" points="12.6278112 17.7416502 11.9201737 10.1611002 28.5 5.48280946 26.7899132 5 8.5 10.1611002 9.20763747 17.7416502 26.7899132 21 28.5 20.6827113"></polygon>
            <path d="M42.5,30.9997632 C42.5,34.3137649 39.8137649,37 36.4997632,37 C33.1862351,37 30.5,34.3137649 30.5,30.9997632 C30.5,27.6862351 33.1862351,25 36.4997632,25 C39.8137649,25 42.5,27.6862351 42.5,30.9997632 Z" id="Path" fill="#50E3C2"></path>
            <path d="M35.5617533,53.522999 C36.0617054,52.9064566 36.3714272,52.13926 36.5,51.1977775 C35.2697161,49.7258405 34.0164898,49 34.0164898,49 L31.5,49 L31.5,54.945984 C31.7595354,54.981854 32.0138132,55 32.2618775,55 C33.6178664,55 34.7898385,54.4754536 35.5617533,53.522999 Z" id="Path" fill="#393F50"></path>
            <path d="M21.5,49 L18.9832696,49 C18.9832696,49 17.7299235,49.7254184 16.5,51.1977775 C16.6281071,52.13926 16.9383365,52.9060346 17.4378584,53.522999 C18.210325,54.4754536 19.3819311,55 20.7380497,55 C20.9866156,55 21.2404397,54.981432 21.5,54.945562 L21.5,49 Z" id="Path" fill="#393F50"></path>
            <path d="M35.9997788,25 C34.6756936,25 33.4595525,25.375 32.5,26 L39.5,26 C38.5404475,25.375 37.3243064,25 35.9997788,25 L35.9997788,25 Z" id="Path" fill="#80C4E6"></path>
            <path d="M48.9902035,17 L2.00979646,17 C1.17605532,17 0.5,17.6748587 0.5,18.507124 L0.5,21.492876 C0.5,22.3251413 1.17605532,23 2.00979646,23 L48.9897504,23 C49.8239447,23 50.5,22.3251413 50.5,21.492876 L50.5,18.507124 C50.5,17.6748587 49.8239447,17 48.9902035,17 Z" id="Path" fill="#4B5562"></path>
            <path d="M4.98710498,21.492876 L4.98710498,18.507124 C4.98710498,17.6748587 5.66454777,17 6.5,17 L3.01289502,17 C2.17744279,17 1.5,17.6748587 1.5,18.507124 L1.5,21.492876 C1.5,22.3251413 2.17744279,23 3.01289502,23 L6.5,23 C5.66454777,23 4.98710498,22.3251413 4.98710498,21.492876 Z" id="Path" fill="#393F50"></path>
            <path d="M44.4795546,4.554625 L43.9398781,9 L7.06049115,9 L6.5203657,4.554625 C6.28958886,2.65359726 8.04959856,1 10.3030396,1 L40.6973296,1 C42.9512196,1 44.7107804,2.65359726 44.4795546,4.554625 Z" id="Path" fill="#4B5562"></path>
            <path d="M14.5,1 L11.1712816,1 C8.99591202,1 7.29687865,2.65359726 7.51966012,4.554625 L8.04107268,9 L11.3697911,9 L10.8483786,4.554625 C10.6255971,2.65359726 12.3246305,1 14.5,1 Z" id="Path" fill="#393F50"></path>
            <path d="M35.0373732,39.1410448 C33.1057023,38.2491848 32.5702473,35.4738021 31.3586402,33.733623 C29.8804258,31.6118472 27.369388,31.4787776 25.6989475,33.1093699 C25.3015009,33.4973266 24.6983859,33.4973266 24.3009394,33.1093699 C22.6304988,31.4787776 20.1194611,31.6118472 18.6416949,33.733623 C17.4296396,35.4738021 16.8941845,38.2491848 14.9625137,39.1410448 C14.4960628,39.3567938 14.3535736,40.0094221 14.6685736,40.4428768 C15.91065,42.1502778 19.0015026,44.9721369 24.1799579,40.9198728 C24.6701569,40.5363191 25.32973,40.5363191 25.8199289,40.9198728 C30.9988323,44.9721369 34.0892369,42.1502778 35.3313133,40.4428768 C35.6463133,40.0094221 35.5042721,39.3567938 35.0373732,39.1410448 L35.0373732,39.1410448 Z" id="Path" fill="#B09D5D"></path>
            <path d="M28.5,52.4705144 C28.5,52.4705144 33.5,56.7460989 33.5,51.0000827 C33.5,45.2540666 28.5,49.5291846 28.5,49.5291846 L28.5,52.4705144 Z" id="Path" fill="#50E3C2"></path>
            <path d="M23.5,52.4705144 C23.5,52.4705144 18.5,56.7460989 18.5,51.0000827 C18.5,45.2540666 23.5,49.5291846 23.5,49.5291846 L23.5,52.4705144 Z" id="Path" fill="#50E3C2"></path>
            <path d="M27.2426271,48 L26.7569353,48 C25.5103264,48 24.5,49.1191354 24.5,50.5 C24.5,51.8808647 25.5103264,53 26.7569353,53 L27.2426271,53 C28.489236,53 29.5,51.8808647 29.5,50.5 C29.4995624,49.1191354 28.489236,48 27.2426271,48 Z" id="Path" fill="#50E3C2"></path>
            <path d="M16,33 C16.2763021,33 16.5,32.5685438 16.5,32.036749 L16.5,29.963251 C16.5,29.4309545 16.2763021,29 16,29 C15.7239584,29 15.5,29.4309545 15.5,29.963251 L15.5,32.036749 C15.5,32.5685438 15.7239584,33 16,33 Z" id="Path" fill="#000000"></path>
            <path d="M36.5,32.036749 L36.5,29.963251 C36.5,29.4309545 36.2763021,29 36,29 C35.7239583,29 35.5,29.4309545 35.5,29.963251 L35.5,32.036749 C35.5,32.5685438 35.7239583,33 36,33 C36.2763021,33 36.5,32.5685438 36.5,32.036749 Z" id="Path" fill="#000000"></path>
            <path d="M52.5,30.8346481 C52.5,27.9690934 50.2801913,25.6139908 47.4690639,25.3925247 C47.3812443,24.9612961 47.2794637,24.5327682 47.1646227,24.1073914 L49.8464976,24.1073914 C51.1511813,24.1073914 52.212222,23.046875 52.212222,21.7432861 L52.212222,18.7719498 C52.212222,17.4683609 51.1511813,16.4078446 49.8464976,16.4078446 L45.2388969,16.4078446 C45.2388969,16.4078446 46.3972147,5.16304022 46.397665,5.15583807 C46.677787,2.43792725 44.4746414,0 41.7436777,0 L37.4815007,0 C37.0041225,0 36.6168156,0.387115479 36.6168156,0.864257812 C36.6168156,1.34140015 37.0041225,1.72851562 37.4815007,1.72851562 L41.7436777,1.72851562 C43.4703458,1.72851562 44.8542923,3.26437378 44.6777524,4.97893521 L44.2161367,9.46002197 L8.78386331,9.46002197 C8.78386331,9.46002197 8.32269793,4.98298651 8.3222476,4.97893521 C8.14570772,3.26212314 9.53280673,1.72851562 11.2563223,1.72851562 L34.0227603,1.72851562 C34.5005889,1.72851562 34.8874454,1.34140015 34.8874454,0.864257812 C34.8874454,0.387115479 34.5005889,0 34.0227603,0 C34.0227603,0 11.2693826,0 11.2563223,0 C8.5231068,0 6.32221298,2.44062811 6.60188454,5.15583807 L7.76110306,16.4078446 L3.15305206,16.4078446 C1.84881871,16.4078446 0.787778038,17.4683609 0.787778038,18.7719498 L0.787778038,21.7432861 C0.787778038,23.046875 1.84881871,24.1073914 3.15305206,24.1073914 L5.83537729,24.1073914 C5.72053627,24.5327682 5.61875569,24.9612961 5.53093608,25.3925247 C2.71980874,25.6139908 0.5,27.9690934 0.5,30.8346481 C0.5,33.8455964 2.95084176,36.2952271 5.96327863,36.2952271 C6.02587825,36.2952271 6.08847777,36.2934265 6.15107739,36.2911759 C8.01915749,42.014183 12.2570151,46.7973099 17.9017876,49.2743987 C16.4358761,50.6815186 14.1521166,53.6015396 14.1521166,58.1357422 C14.1521166,58.6133346 14.5394236,59 15.0168017,59 L37.9831983,59 C38.4605764,59 38.8478834,58.6133346 38.8478834,58.1357422 C38.8478834,53.6015396 36.5641239,50.6815186 35.0982124,49.274849 C38.579921,47.7466431 41.5266056,45.3415756 43.711737,42.379692 L44.1539874,42.821724 C45.0425414,43.7098389 46.2098662,44.1536712 47.3771911,44.1536712 C48.544516,44.1536712 49.7113906,43.7098389 50.5999445,42.821724 C52.3770526,41.0454941 52.3770526,38.1551819 50.5999445,36.378952 L49.7766923,35.5556564 C51.4033811,34.6090241 52.5,32.8476486 52.5,30.8346481 L52.5,30.8346481 Z M2.51714823,21.7432861 L2.51714823,18.7719498 C2.51714823,18.4212952 2.80222407,18.1363602 3.15305206,18.1363602 L13.270318,18.1363602 C13.7481466,18.1363602 14.1350031,17.7492447 14.1350031,17.2721024 C14.1350031,16.7945099 13.7481466,16.4078446 13.270318,16.4078446 L9.49948039,16.4078446 L8.96220473,11.1885376 L44.0377953,11.1885376 L43.5005196,16.4078446 L16.7290584,16.4078446 C16.2516802,16.4078446 15.8643733,16.7945099 15.8643733,17.2721024 C15.8643733,17.7492447 16.2516802,18.1363602 16.7290584,18.1363602 L49.8464976,18.1363602 C50.1973256,18.1363602 50.4828518,18.4212952 50.4828518,18.7719498 L50.4828518,21.7432861 C50.4828518,22.0939408 50.1973256,22.3788757 49.8464976,22.3788757 L3.15305206,22.3788757 C2.8026744,22.3788757 2.51714823,22.0939408 2.51714823,21.7432861 L2.51714823,21.7432861 Z M5.65703599,34.5541077 C3.74121801,34.397911 2.22937019,32.7895813 2.22937019,30.8346481 C2.22937019,29.0219573 3.52910004,27.5068054 5.24586012,27.1714554 C5.22199124,27.3731156 5.20172521,27.5752258 5.18371094,27.7777863 C4.98330218,30.0415116 5.14137734,32.3407975 5.65703599,34.5541077 Z M21.3785422,48.1864242 C22.0743435,48.2588958 22.6904316,48.6325073 23.2596826,49.013321 C23.2619345,49.0151214 23.2880552,49.0308761 23.2876106,49.0322266 C23.1385367,49.4049377 23.0624264,49.807808 23.0624264,50.2093277 C23.0624264,50.6099472 23.1376359,51.0128174 23.2871545,51.3846282 C23.1025081,51.5079651 22.8917411,51.6394043 22.665662,51.762741 C22.235121,51.9972611 21.7347745,52.2407837 21.2245201,52.2407837 C21.004746,52.2407837 20.3368669,52.2403336 20.3368669,50.2093277 C20.3368669,49.6790695 20.3602855,49.0866928 20.5940206,48.6000977 C20.7489433,48.2778015 21.0277142,48.1495133 21.3785422,48.1864242 L21.3785422,48.1864242 Z M25.4952539,48.9746094 C25.7181806,48.8341675 25.9775861,48.7517929 26.2500519,48.7517929 L26.7508487,48.7517929 C27.5407746,48.7517929 28.2086538,49.4202424 28.2086538,50.2093277 C28.2086538,50.9988632 27.5398739,51.6659622 26.7499481,51.6668625 L26.2500519,51.6668625 C25.4700339,51.6668625 24.7917966,50.9840088 24.7917966,50.2093277 C24.7917966,49.7015763 25.0791242,49.2370377 25.4952539,48.9746094 L25.4952539,48.9746094 Z M29.8916372,48.916092 C30.4640408,48.5537338 31.0922885,48.1738205 31.7925934,48.178772 C32.6599805,48.185524 32.6631331,49.6313553 32.6631331,50.2093277 C32.6631331,51.0902405 32.5239728,51.5732345 32.3996744,51.829361 C32.2587127,52.1201477 31.9799418,52.2614899 31.6642417,52.2358322 C31.1026467,52.1899185 30.584286,51.9175872 30.1078085,51.634903 C29.9650453,51.5498275 29.8326405,51.4647522 29.7132959,51.3841781 C29.7988637,51.1708145 29.8592116,50.9493485 29.8961408,50.7224808 C29.988464,50.1562118 29.9258644,49.5651855 29.7123952,49.0322266 C29.7646366,48.997116 29.8853322,48.9196931 29.8916372,48.916092 Z M18.6412734,50.9840088 C18.6426245,50.997963 18.7988984,52.0413742 19.0078639,52.5081634 C19.3848126,53.3499146 20.1220466,53.9062805 21.0524839,53.9638977 C21.0605904,53.9643478 21.0691471,53.9652481 21.0772535,53.9652481 L21.0772535,57.2714844 L15.9139125,57.2714844 C16.1431442,54.2677384 17.5347467,52.1876678 18.6412734,50.9840088 Z M22.8070741,53.6109924 C23.4051479,53.3638687 23.9473775,53.0321198 24.3414398,52.7606888 C24.8854708,53.1707611 25.5695627,53.3953781 26.2500519,53.3953781 L26.7499481,53.3953781 C27.4286357,53.3953781 28.1158803,53.1698608 28.6585602,52.7606888 C29.0526225,53.0316696 29.5948521,53.3634186 30.1929259,53.6109924 L30.1929259,57.2714844 L22.8070741,57.2714844 L22.8070741,53.6109924 Z M37.0851867,57.2714844 L31.9222961,57.2714844 L31.9222961,53.9652481 L31.9249982,53.9652481 L31.9290515,53.9652481 C31.9740872,53.9625473 32.020474,53.9589462 32.0677614,53.9539948 C32.0704635,53.9539948 32.0727152,53.9535446 32.0754174,53.9530945 C32.7270838,53.8833236 33.5372757,53.5574264 34.0065475,52.4762039 C34.1880413,52.0656815 34.3042333,51.5750351 34.3578258,50.9970627 C35.4630014,52.2079239 36.8541537,54.2929459 37.0851867,57.2714844 Z M33.9759232,47.8740311 C33.4246865,46.6789246 32.44471,46.4493561 31.7754799,46.4493561 C30.7108362,46.4493561 29.6696112,46.9782638 28.8062773,47.5580368 C28.8026744,47.5607376 28.7022449,47.6278076 28.6585602,47.6575164 C28.6414467,47.6449128 28.6229821,47.6336593 28.6058685,47.6210556 C28.0694935,47.2339401 27.4115222,47.0232773 26.7499481,47.0232773 L26.2500519,47.0232773 C25.5745167,47.0232773 24.8854708,47.2492447 24.3414398,47.6575164 C24.3252269,47.6701203 23.949179,47.4018402 23.9163029,47.3815841 C23.1169196,46.8909378 22.1878334,46.4493561 21.2245201,46.4493561 C20.55529,46.4493561 19.5753135,46.6789246 19.0240768,47.8744812 C12.4493175,45.1732254 7.85883046,39.1036148 6.98153537,32.1233826 C6.6451188,29.446434 6.86714468,26.6947632 7.63140029,24.1073914 L45.3685997,24.1073914 C45.6298067,24.9914551 45.827063,25.8921737 45.960819,26.8036956 C46.5940207,31.1065292 45.757708,35.5921174 43.5986975,39.3885498 C43.5464561,39.4803772 43.4933139,39.5717545 43.4397214,39.6631317 L40.1728331,36.3978577 C41.7612416,35.1973495 42.7898566,33.294632 42.7898566,31.1555939 C42.7898566,27.5333634 39.8413705,24.5867843 36.2173491,24.5867843 C32.5937782,24.5867843 29.645292,27.5333634 29.645292,31.1555939 C29.645292,31.5048981 29.6745652,31.8510514 29.7290585,32.1922531 C28.6004642,32.2116089 27.5015936,32.6491394 26.6265502,33.4310226 C26.5824153,33.4706344 26.5333265,33.4787369 26.5,33.4787369 C26.4666735,33.4787369 26.4180351,33.4706344 26.3739001,33.4310226 C25.4785907,32.631134 24.3490958,32.1904525 23.1930298,32.1904525 C21.7325226,32.1904525 20.3575833,32.8962631 19.4212915,34.1269303 C18.963729,34.7278596 18.6052449,35.4251175 18.2584702,36.0994186 C17.6482367,37.2864227 17.0717799,38.4077072 16.07469,38.8294831 C15.091561,39.2449569 14.7781127,40.5278397 15.4392365,41.3601379 C16.2341162,42.3612366 17.9702418,44.0402375 20.6647267,44.0402375 C22.4013026,44.0402375 24.2567727,43.3416291 26.1797963,41.9642181 C26.3675952,41.829628 26.6324048,41.829628 26.8206541,41.9642181 C28.7432273,43.3416291 30.5986974,44.0402375 32.3357236,44.0402375 C35.0297582,44.0402375 36.7658838,42.3612366 37.5612139,41.3601379 C38.222788,40.5273895 37.9070879,39.2445068 36.9257604,38.8294831 C36.4092012,38.6111679 36.0061318,38.2042465 35.6521514,37.6987458 C35.8394998,37.7145004 36.0277489,37.7244034 36.2173491,37.7244034 C37.059066,37.7244034 37.8638536,37.5637054 38.6042403,37.2742691 L42.4746068,41.1431732 C40.3637844,44.0839005 37.446373,46.4484558 33.9759232,47.8740311 Z M30.6275202,34.0432052 C31.9398601,34.4474259 32.6189982,35.7528153 33.2035613,36.8889542 C33.8772951,38.1997452 34.6388485,39.6806869 36.137636,40.3707429 C35.3936465,41.2759628 34.1470588,42.3112716 32.3352733,42.3112716 C30.9670893,42.3112716 29.4507379,41.7215958 27.8276519,40.559349 C27.0422296,39.9966812 25.9573201,39.9966812 25.1718978,40.559349 C23.5488118,41.7215958 22.0324603,42.3112716 20.6642764,42.3112716 C18.8524908,42.3112716 17.6059032,41.2759628 16.862364,40.3707429 C18.3611515,39.6806869 19.1227049,38.1997452 19.7964387,36.8889542 C20.5201622,35.4818344 21.3902514,33.9189682 23.1925795,33.9189682 C23.9226079,33.9189682 24.6431788,34.2030029 25.2209866,34.7197571 C25.9379547,35.3602982 27.0624956,35.3593979 27.778563,34.7197571 C28.5477725,34.0328522 29.6308806,33.7366638 30.6275202,34.0432052 Z M34.5316636,35.6933976 C34.52716,35.684845 34.5231068,35.6771927 34.5186032,35.6690902 C33.8345111,34.3722534 32.9774822,33.1393356 31.5800249,32.55056 C31.4435668,32.0986252 31.3746622,31.6309357 31.3746622,31.1555939 C31.3746622,28.4862976 33.5471835,26.3148499 36.2173491,26.3148499 C38.8879651,26.3148499 41.0600361,28.4862976 41.0600361,31.1555939 C41.0600361,33.82444 38.8879651,35.9958878 36.2173491,35.9958878 C35.6363889,35.9958878 35.0707407,35.8941574 34.5316636,35.6933976 Z M49.3772257,37.6010666 C50.4801497,38.7034455 50.4801497,40.4972306 49.3772257,41.5991593 C48.2743019,42.7015381 46.4800803,42.7015381 45.3771565,41.5991593 L44.6984688,40.9208069 C45.5928775,39.4749756 46.3170512,37.9211121 46.8489226,36.2911759 C47.2299244,36.3046798 47.6109263,36.2772217 47.9860736,36.2110519 L49.3772257,37.6010666 Z M47.342964,34.5541077 C47.5492275,33.6682434 47.6969445,32.768425 47.7888173,31.8605042 C47.9252754,30.5042496 47.9356336,29.1358414 47.8162891,27.7777863 C47.7982748,27.5752258 47.7780088,27.3731156 47.7541399,27.1714554 C49.4709,27.5068054 50.7706298,29.0219573 50.7706298,30.834198 C50.7706298,32.7895813 49.258782,34.397911 47.342964,34.5541077 Z" id="Shape" fill="#000000"></path>
        </g>
        <text id="Title" font-family="Merriweather-Black, Merriweather" font-size="26" font-weight="700">
            <tspan x="68.459" y="41" fill="#221E1F">Log and </tspan>
            <tspan x="179.687" y="41" fill="#50E3C2">ROI</tspan>
        </text>
    </g>
</svg>