<?xml version="1.0" encoding="UTF-8"?>
<svg width="746px" height="746px" viewBox="0 0 746 746" version="1.1" xmlns="http://www.w3.org/2000/svg" xmlns:xlink="http://www.w3.org/1999/xlink">
    <title>Group 5</title>
    <g id="Misc" stroke="none" stroke-width="1" fill="none" fill-rule="evenodd">
        <g id="Group-5">
            <circle id="Oval" fill="#50E3C2" cx="373" cy="373" r="373"></circle>
            <g id="money-bill-alt-solid" transform="translate(143.000000, 235.000000)" fill="#FFFFFF" fill-rule="nonzero">
                <path d="M253,161 L241.5,161 L241.5,97.75 C241.5,94.573125 238.926875,92 235.75,92 L225.989375,92 C222.5825,92 219.254687,93.00625 216.422812,94.8965625 L205.404375,102.242188 C204.135246,103.087178 203.254014,104.401958 202.954737,105.896993 C202.65546,107.392028 202.962683,108.944714 203.80875,110.213125 L210.19125,119.779688 C211.036241,121.048816 212.351021,121.930049 213.846056,122.229326 C215.341091,122.528602 216.893776,122.22138 218.162188,121.375313 L218.5,121.1525 L218.5,161 L207,161 C203.823125,161 201.25,163.573125 201.25,166.75 L201.25,178.25 C201.25,181.426875 203.823125,184 207,184 L253,184 C256.176875,184 258.75,181.426875 258.75,178.25 L258.75,166.75 C258.75,163.573125 256.176875,161 253,161 L253,161 Z M437,0 L23,0 C10.2996875,0 0,10.2996875 0,23 L0,253 C0,265.700312 10.2996875,276 23,276 L437,276 C449.700312,276 460,265.700312 460,253 L460,23 C460,10.2996875 449.700312,0 437,0 Z M34.5,241.5 L34.5,195.5 C59.9078125,195.5 80.5,216.092187 80.5,241.5 L34.5,241.5 Z M34.5,80.5 L34.5,34.5 L80.5,34.5 C80.5,59.9078125 59.9078125,80.5 34.5,80.5 Z M230,218.5 C191.891875,218.5 161,182.454688 161,138 C161,93.538125 191.891875,57.5 230,57.5 C268.108125,57.5 299,93.538125 299,138 C299,182.469063 268.09375,218.5 230,218.5 Z M425.5,241.5 L379.5,241.5 C379.5,216.092187 400.092187,195.5 425.5,195.5 L425.5,241.5 Z M425.5,80.5 C400.092187,80.5 379.5,59.9078125 379.5,34.5 L425.5,34.5 L425.5,80.5 Z" id="Shape"></path>
            </g>
        </g>
    </g>
</svg>