<?xml version="1.0" encoding="UTF-8"?>
<svg width="746px" height="746px" viewBox="0 0 746 746" version="1.1" xmlns="http://www.w3.org/2000/svg" xmlns:xlink="http://www.w3.org/1999/xlink">
    <title>Group 2</title>
    <g id="Misc" stroke="none" stroke-width="1" fill="none" fill-rule="evenodd">
        <g id="Group-2">
            <circle id="Oval" fill="#50E3C2" cx="373" cy="373" r="373"></circle>
            <g id="Group" transform="translate(166.000000, 200.000000)" fill="#FFFFFF" fill-rule="nonzero">
                <path d="M40.4753722,266.559356 C18.4092555,266.559356 -2.36752268e-14,284.468813 -2.36752268e-14,306.54326 C-2.36752268e-14,328.617706 18.4259155,346.527163 40.4753722,346.527163 C62.5578723,346.527163 80.4592757,328.62576 80.4592757,306.54326 C80.4592757,284.460759 62.5578723,266.559356 40.4753722,266.559356 Z" id="Path"></path>
                <path d="M40.4753722,133.279678 C18.4092555,133.279678 -2.36752268e-14,151.189135 -2.36752268e-14,173.263581 C-2.36752268e-14,195.338028 18.4259155,213.247485 40.4753722,213.247485 C62.5578723,213.247485 80.4592757,195.346082 80.4592757,173.263581 C80.4592757,151.181081 62.5578723,133.279678 40.4753722,133.279678 Z" id="Path"></path>
                <path d="M40.4753722,0 C18.4092555,0 -2.36752268e-14,17.9094567 -2.36752268e-14,39.9839034 C-2.36752268e-14,62.0583501 18.4259155,79.9678068 40.4753722,79.9678068 C62.5578723,79.9678068 80.4592757,62.0664035 80.4592757,39.9839034 C80.4592757,17.9014033 62.5578723,0 40.4753722,0 Z" id="Path"></path>
                <path d="M400.330503,279.887324 L160.427082,279.887324 C153.066249,279.887324 147.099115,285.854458 147.099115,293.215292 L147.099115,319.871227 C147.099115,327.232061 153.066249,333.199195 160.427082,333.199195 L400.330503,333.199195 C407.691336,333.199195 413.658471,327.232061 413.658471,319.871227 L413.658471,293.215292 C413.658471,285.854458 407.691336,279.887324 400.330503,279.887324 Z" id="Path"></path>
                <path d="M400.330503,13.3279678 L160.427082,13.3279678 C153.066249,13.3279678 147.099115,19.2951022 147.099115,26.6559356 L147.099115,53.3118712 C147.099115,60.6727046 153.066249,66.639839 160.427082,66.639839 L400.330503,66.639839 C407.691336,66.639839 413.658471,60.6727046 413.658471,53.3118712 L413.658471,26.6559356 C413.658471,19.2951022 407.691336,13.3279678 400.330503,13.3279678 Z" id="Path"></path>
                <path d="M400.330503,146.607646 L160.427082,146.607646 C153.066249,146.607646 147.099115,152.57478 147.099115,159.935614 L147.099115,186.591549 C147.099115,193.952383 153.066249,199.919517 160.427082,199.919517 L400.330503,199.919517 C407.691336,199.919517 413.658471,193.952383 413.658471,186.591549 L413.658471,159.935614 C413.658471,152.57478 407.691336,146.607646 400.330503,146.607646 Z" id="Path"></path>
            </g>
        </g>
    </g>
</svg>