<?xml version="1.0" encoding="UTF-8"?>
<svg width="746px" height="746px" viewBox="0 0 746 746" version="1.1" xmlns="http://www.w3.org/2000/svg" xmlns:xlink="http://www.w3.org/1999/xlink">
    <title>Group 3</title>
    <g id="Misc" stroke="none" stroke-width="1" fill="none" fill-rule="evenodd">
        <g id="Group-3">
            <circle id="Oval" fill="#50E3C2" cx="373" cy="373" r="373"></circle>
            <g id="clock-solid" transform="translate(143.000000, 143.000000)" fill="#FFFFFF" fill-rule="nonzero">
                <path d="M230,0 C102.943548,0 0,102.943548 0,230 C0,357.056452 102.943548,460 230,460 C357.056452,460 460,357.056452 460,230 C460,102.943548 357.056452,0 230,0 Z M315.777016,290.282258 L315.777016,290.282258 L297.228629,313.467742 C294.770303,316.541265 291.191648,318.512259 287.280019,318.947078 C283.36839,319.381897 279.44425,318.244917 276.370968,315.78629 L276.370968,315.78629 L214.233871,269.675 C205.439396,262.633785 200.32117,251.977638 200.32258,240.711694 L200.32258,96.4516129 C200.32258,88.2564198 206.966097,81.6129032 215.16129,81.6129032 L244.83871,81.6129032 C253.033903,81.6129032 259.677419,88.2564198 259.677419,96.4516129 L259.677419,230 L313.467742,269.415323 C316.542594,271.875202 318.513618,275.45639 318.94675,279.370227 C319.379881,283.284064 318.239598,287.209569 315.777016,290.282258 Z" id="Shape"></path>
            </g>
        </g>
    </g>
</svg>